<svg width="6033" height="3974" viewBox="0 0 6033 3974" fill="none" xmlns="http://www.w3.org/2000/svg">
<path d="M1497.5 3262.5C1665.9 3491.7 1798.67 3825.33 1844 3963.5H4V644.5L1018.5 200C1673.3 8.39978 1571.67 451.5 1439 697C1209.8 1005.8 1063.17 1456.67 1018.5 1643.5C878.57 2420.11 1286.59 2975.44 1497.18 3262.07L1497.5 3262.5Z" fill="#FED9D9"/>
<path d="M5730 1427C5336.5 805.5 4522 364.5 4706.5 0H6030V3105.5C5606.4 3308.7 5653.5 2848.5 5730 2593C5930.8 2123.8 5813.67 1620.17 5730 1427Z" fill="#FED9D9"/>
<path d="M6030 2658.59L5709 2591C5650.33 2800.83 5653.02 2923.57 5661.7 2958.71C5671.05 3226.64 5911.13 3173.24 6030 3113.05V2658.59Z" fill="#FEDEDE"/>
<path d="M5148.5 2350.5L5728 2591C5548.5 3223.5 5841.5 3203 6032.5 3112V3974H5591.5C5443.83 3750.17 5103 3195.9 4921 2769.5C4739 2343.1 4996.83 2312.5 5148.5 2350.5Z" fill="#EBABAB" fill-opacity="0.75"/>
<path d="M1568 2970C1329.6 3220 1230 3735.83 1210 3962.5H0.5V3100.5C392.5 2830.9 1071.83 2591.5 1362.5 2505.5C1768.1 2426.7 1668.5 2782.33 1568 2970Z" fill="#E29797" fill-opacity="0.7"/>
</svg>